<svg width="350" height="350" viewBox="0 0 350 350" fill="none" xmlns="http://www.w3.org/2000/svg">
<path d="M61.5372 0.653298C44.2572 3.23846 30.0972 14.697 26.0972 29.4394C25.4572 31.8848 24.8972 36.4962 24.8972 39.7801C24.8172 44.601 24.6572 45.4395 23.9372 44.3216C21.7772 41.0377 17.6172 40.1993 14.4172 42.505C12.8972 43.553 12.4972 44.601 12.2572 48.4439L11.9372 53.0552L10.3372 51.3085C8.33719 49.0727 4.01719 48.9329 1.69719 50.9591C-0.38281 52.7757 -0.62281 60.9504 1.37719 63.3959C3.21719 65.7016 8.25719 65.5618 10.4172 63.1164L12.0972 61.2299V65.5618C12.0972 69.195 12.4172 70.1732 14.0972 71.5706C17.2172 74.3653 21.7772 73.7365 23.9372 70.1732C24.6572 69.1251 24.8172 73.1776 24.8972 86.0335V103.361H94.9772H165.057L164.577 116.776C163.857 133.265 163.777 134.104 161.377 134.104C159.057 134.104 156.097 136.898 156.097 139.064C156.097 141.51 158.097 143.676 160.897 144.235L163.297 144.724L162.897 150.383C162.337 157.091 155.297 299.833 155.297 303.467C155.297 305.842 155.137 305.982 152.577 305.982C148.977 305.982 146.177 308.846 146.817 311.851C147.457 314.646 148.577 315.624 151.777 316.183C154.497 316.602 154.497 316.602 154.497 320.585C154.497 325.755 153.857 327.641 152.097 327.641C149.857 327.641 147.377 329.877 146.817 332.323C146.337 334.279 146.657 334.908 148.897 336.724L151.457 338.82H122.097C93.6172 338.82 92.5772 338.89 89.9372 340.288C87.2972 341.685 84.0972 346.087 84.0972 348.253C84.0972 349.161 93.9372 349.301 177.777 349.301H271.457L270.897 347.344C270.017 344.061 267.697 341.336 264.897 340.078C262.417 338.96 259.137 338.82 232.977 338.82H203.937L206.497 336.724C208.737 334.908 209.057 334.279 208.577 332.323C208.017 329.877 205.537 327.641 203.297 327.641C201.537 327.641 200.897 325.755 200.897 320.585C200.897 316.602 200.897 316.602 203.617 316.183C206.817 315.624 207.937 314.646 208.577 311.711C209.217 308.916 206.177 305.982 202.497 305.982C200.257 305.982 200.097 305.772 200.097 303.467C200.097 299.833 193.057 157.091 192.497 150.383L192.097 144.724L194.497 144.235C199.137 143.326 200.817 138.435 197.457 135.641C196.417 134.802 194.817 134.104 193.937 134.104C191.697 134.104 191.537 133.125 190.897 116.776L190.337 103.361L227.777 103.501L265.297 103.71L265.537 142.488L265.697 181.265L263.777 182.663C257.057 187.554 258.257 197.195 266.097 200.479C270.177 202.226 272.337 202.226 276.657 200.479C281.057 198.733 283.297 195.588 283.297 191.047C283.297 187.414 281.137 183.361 278.897 182.593C277.857 182.243 277.697 177.073 277.697 142.767V103.361H300.897H324.097V86.1732V68.9854L326.177 71.1514C327.697 72.7583 328.897 73.3173 330.897 73.3173C334.977 73.3173 336.897 70.7321 336.897 65.4221V61.2299L338.577 63.1164C339.857 64.5138 340.897 64.933 343.217 64.933C347.857 64.933 349.297 63.1164 349.297 57.2474C349.297 51.3784 347.857 49.5618 343.217 49.5618C340.897 49.5618 339.857 49.981 338.577 51.3784L336.897 53.2648V48.9329C336.897 45.2997 336.577 44.3216 334.897 42.9242C332.097 40.4788 328.817 40.6185 326.177 43.3434L324.097 45.5093V39.5006C324.097 31.7451 322.977 27.2735 319.457 20.9852C315.697 14.1381 308.497 7.9197 300.657 4.49611C289.617 -0.255002 295.377 -0.0453945 174.497 0.0244747C114.417 0.0943439 63.6172 0.373821 61.5372 0.653298ZM312.097 87.2911V92.8807H174.497H36.8972V87.2911V81.7016H174.497H312.097V87.2911Z" fill="url(#paint0_linear_27284_3318)"/>
<g opacity="0.6">
<path d="M61.537 0.652733C44.257 3.23789 30.097 14.6964 26.097 29.4389L24.897 36.4258H94.977H165.057" fill="url(#paint1_linear_27284_3318)"/>
</g>
<g opacity="0.4">
<path d="M24.0972 104.758V244.496H32.0972V104.758H24.0972Z" fill="url(#paint2_linear_27284_3318)"/>
</g>
<defs>
<linearGradient id="paint0_linear_27284_3318" x1="0" y1="349.301" x2="34930" y2="-34580.4" gradientUnits="userSpaceOnUse">
<stop stop-color="#8F2B18"/>
<stop offset="0.5" stop-color="#762314"/>
<stop offset="1" stop-color="#631D10"/>
</linearGradient>
<linearGradient id="paint1_linear_27284_3318" x1="24.897" y1="36.4258" x2="24.897" y2="-3540.88" gradientUnits="userSpaceOnUse">
<stop stop-color="white" stop-opacity="0.4"/>
<stop offset="1" stop-color="white" stop-opacity="0"/>
</linearGradient>
<linearGradient id="paint2_linear_27284_3318" x1="24.0972" y1="244.496" x2="824.097" y2="244.496" gradientUnits="userSpaceOnUse">
<stop stop-color="white" stop-opacity="0.2"/>
<stop offset="0.5" stop-color="white" stop-opacity="0"/>
<stop offset="1" stop-color="white" stop-opacity="0"/>
</linearGradient>
</defs>
</svg>
