<svg viewBox="0 0 450 450" fill="none" xmlns="http://www.w3.org/2000/svg">
<g clip-path="url(#clip0_27305_3374)">
<mask id="mask0_27305_3374" style="mask-type:luminance" maskUnits="userSpaceOnUse" x="50" y="50" width="350" height="350">
<path d="M400 50H50V400H400V50Z" fill="white"/>
</mask>
<g mask="url(#mask0_27305_3374)">
<path d="M111.537 50.6525C94.2572 53.2377 80.0972 64.6962 76.0972 79.4386C75.4572 81.884 74.8972 86.4954 74.8972 89.7793C74.8172 94.6002 74.6572 95.4387 73.9372 94.3208C71.7772 91.0369 67.6172 90.1985 64.4172 92.5042C62.8972 93.5522 62.4972 94.6002 62.2572 98.4431L61.9372 103.054L60.3372 101.308C58.3372 99.0719 54.0172 98.9321 51.6972 100.958C49.6172 102.775 49.3772 110.95 51.3772 113.395C53.2172 115.701 58.2572 115.561 60.4172 113.116L62.0972 111.229V115.561C62.0972 119.194 62.4172 120.172 64.0972 121.57C67.2172 124.365 71.7772 123.736 73.9372 120.172C74.6572 119.124 74.8172 123.177 74.8972 136.033V153.36H195.057V166.775C194.337 183.264 194.257 184.103 191.857 184.103C189.537 184.103 186.577 186.897 186.577 189.063C186.577 191.509 188.577 193.675 191.377 194.234L193.777 194.723L193.377 200.382C192.817 207.09 185.777 349.832 185.777 353.466C185.777 355.841 185.617 355.981 183.057 355.981C179.457 355.981 176.657 358.845 177.297 361.85C177.937 364.645 179.057 365.623 182.257 366.182C184.977 366.601 184.977 366.601 184.977 370.584C184.977 375.754 184.337 377.64 182.577 377.64C180.337 377.64 177.857 379.876 177.297 382.322C176.817 384.278 177.137 384.907 179.377 386.723L181.937 388.819H172.097C143.617 388.819 142.577 388.889 139.937 390.287C137.297 391.684 134.097 396.086 134.097 398.252C134.097 399.16 143.937 399.3 227.777 399.3H321.457L320.897 397.343C320.017 394.06 317.697 391.335 314.897 390.077C312.417 388.959 309.137 388.819 282.977 388.819H273.937L276.497 386.723C278.737 384.907 279.057 384.278 278.577 382.322C278.017 379.876 275.537 377.64 273.297 377.64C271.537 377.64 270.897 375.754 270.897 370.584C270.897 366.601 270.897 366.601 273.617 366.182C276.817 365.623 277.937 364.645 278.577 361.71C279.217 358.915 276.177 355.981 272.497 355.981C270.257 355.981 270.097 355.771 270.097 353.466C270.097 349.832 263.057 207.09 262.497 200.382L262.097 194.723L264.497 194.234C269.137 193.325 270.817 188.434 267.457 185.64C266.417 184.801 264.817 184.103 263.937 184.103C261.697 184.103 261.537 183.124 260.897 166.775L260.337 153.36H277.777L315.297 153.709L315.537 192.487L315.697 231.264L313.777 232.662C307.057 237.553 308.257 247.194 316.097 250.478C320.177 252.225 322.337 252.225 326.657 250.478C331.057 248.732 333.297 245.587 333.297 241.046C333.297 237.413 331.137 233.36 328.897 232.592C327.857 232.242 327.697 227.072 327.697 192.766V153.36H374.097V118.985L376.177 121.151C377.697 122.757 378.897 123.316 380.897 123.316C384.977 123.316 386.897 120.731 386.897 115.421V111.229L388.577 113.116C389.857 114.513 390.897 114.932 393.217 114.932C397.857 114.932 399.297 113.116 399.297 107.247C399.297 101.378 397.857 99.561 393.217 99.561C390.897 99.561 389.857 99.9802 388.577 101.378L386.897 103.264V98.9321C386.897 95.2989 386.577 94.3208 384.897 92.9234C382.097 90.478 378.817 90.6177 376.177 93.3426L374.097 95.5085V89.4998C374.097 81.7443 372.977 77.2727 369.457 70.9844C365.697 64.1373 358.497 57.9189 350.657 54.4953C339.617 49.7442 345.377 49.9538 224.497 50.0237C164.417 50.0935 113.617 50.373 111.537 50.6525ZM362.097 142.88H106.897V131.701H362.097V142.88Z" fill="url(#paint0_linear_27305_3374)"/>
<path d="M111.537 50.6523C94.2572 53.2375 80.0972 64.6961 76.0972 79.4385L74.897 86.4257H195.057" fill="url(#paint1_linear_27305_3374)"/>
</g>
</g>
<defs>
<linearGradient id="paint0_linear_27305_3374" x1="50.0001" y1="399.301" x2="34980" y2="-34530.4" gradientUnits="userSpaceOnUse">
<stop stop-color="#8F2B18"/>
<stop offset="0.5" stop-color="#762314"/>
<stop offset="1" stop-color="#631D10"/>
</linearGradient>
<linearGradient id="paint1_linear_27305_3374" x1="74.897" y1="86.4253" x2="74.897" y2="-3490.88" gradientUnits="userSpaceOnUse">
<stop stop-color="white" stop-opacity="0.4"/>
<stop offset="1" stop-color="white" stop-opacity="0"/>
</linearGradient>
<clipPath id="clip0_27305_3374">
<rect width="350" height="350" fill="white" transform="translate(50 50)"/>
</clipPath>
</defs>
</svg>
